<svg xmlns="http://www.w3.org/2000/svg" xmlns:xlink="http://www.w3.org/1999/xlink" width="2126" height="1535" viewBox="0 0 2126 1535">
  <defs>
    <style>
      .cls-1 {
        fill: url(#linear-gradient);
      }

      .cls-2 {
        fill: #fff;
        fill-rule: evenodd;
      }
    </style>
    <linearGradient id="linear-gradient" x1="1819" y1="1524" x2="307" y2="12" gradientUnits="userSpaceOnUse">
      <stop offset="0" stop-color="#fff"/>
      <stop offset="1" stop-color="#1147ff"/>
    </linearGradient>
  </defs>
  <circle id="Эллипс_1" data-name="Эллипс 1" class="cls-1" cx="1063" cy="768" r="756"/>
  <path id="Фигура_2" data-name="Фигура 2" class="cls-2" d="M1012,805v15L869,1079l40,60,59-23,62-236-34,333,63,58,64-60-33-330,60,238,71,21,30-66L1106,821V809c0-5.685,27.71-5.656,55-51s36.01-56.159,78-145,42.08-100.336,100-181c74.41-73.907,87.6-80.907,121-97-42.81-.419-72,0-72,0s-109.97,29.134-172,88c-33.92,34.814-68.65,119.331-76,142,0.27-14.81,6.12-11.124-47-97-5-7.524-5.03-8.558-5-15s0-33,0-33,1.8-10.086,10-10,16,0,16,0,11.11-1.584,14-9-7.76-1.628-17-10-11.46-13.286-29-17-37.61.422-42,3c-4.39,2.023-14.59,6.119-19,23-2.33,9.809-1,58-1,58a24.758,24.758,0,0,1-5,12c-4.57,6-19.314,30.749-33,60-7.8,14.631-6.5,20.286-6,31-4.919-11.071-8.725-26.817-38-87-18.987-36.051-30.237-45.62-105-98-50.24-25.238-50.918-26.765-86-32-37.7-.657-80,0-80,0s60.479,38.923,108,90c8.6,16.586,28.037,34.127,79,126,41.388,93.179,37.936,95.582,69,149C951.191,760.024,954.553,777.717,1012,805Z"/>
  <path id="Фигура_3" data-name="Фигура 3" class="cls-2" d="M1267,597s36.67-17.811,77-91,66.12-109.195,118-127c1.32,59.6-36.76,113.925-53,136C1403.29,517.065,1358.11,616.484,1267,597Z"/>
  <path id="Фигура_3-2" data-name="Фигура 3" class="cls-2" d="M862,598s-36.671-17.811-77-91S718.88,397.805,667,380c-1.323,59.6,36.755,113.925,53,136C725.712,518.065,770.893,617.484,862,598Z"/>
  <path id="Фигура_4" data-name="Фигура 4" class="cls-2" d="M1249,655s59.73,9.676,128-62,65.49-98.314,99-95c-14.41,31.75-31.86,77.135-60,115S1326.94,693.967,1249,655Z"/>
  <path id="Фигура_4-2" data-name="Фигура 4" class="cls-2" d="M878,655s-59.735,9.676-128-62-65.486-98.314-99-95c14.409,31.75,31.863,77.135,60,115S800.059,693.967,878,655Z"/>
  <path id="Фигура_5" data-name="Фигура 5" class="cls-2" d="M1221,681s27.9,27.269,75,22c33.41-3.163,53.38-.589,90-39-18.68,37.417-34.29,71.717-101,78-0.54-.188-1.08-0.373-1.61-0.555C1250.21,737.232,1230.37,729.912,1221,681Z"/>
  <path id="Фигура_5-2" data-name="Фигура 5" class="cls-2" d="M894,681s-27.9,27.269-75,22c-33.407-3.163-53.38-.589-90-39,18.676,37.417,34.288,71.717,101,78q0.812-.282,1.608-0.555C864.786,737.232,884.633,729.912,894,681Z"/>
</svg>
