<svg xmlns="http://www.w3.org/2000/svg" xmlns:xlink="http://www.w3.org/1999/xlink" width="3000" height="500" viewBox="0 0 3000 500">
  <defs>
    <style>
      .cls-1 {
        fill: url(#linear-gradient);
      }

      .cls-2 {
        fill: #fff;
      }

      .cls-2, .cls-3 {
        fill-rule: evenodd;
      }

      .cls-3 {
        fill: #99b1ff;
      }
    </style>
    <linearGradient id="linear-gradient" x1="526" y1="409" x2="222" y2="105" gradientUnits="userSpaceOnUse">
      <stop offset="0" stop-color="#fff"/>
      <stop offset="1" stop-color="#1147ff"/>
    </linearGradient>
  </defs>
  <circle id="Эллипс_1" data-name="Эллипс 1" class="cls-1" cx="374" cy="257" r="152"/>
  <path id="Фигура_2" data-name="Фигура 2" class="cls-2" d="M363.747,264.44v3.016L335,319.531l8.042,12.063L354.9,326.97l12.466-47.45-6.836,66.953L373.2,358.134l12.868-12.063-6.635-66.35,12.063,47.852,14.276,4.222,6.031-13.269-29.153-50.869v-2.412c0-1.143,5.57-1.138,11.058-10.254s7.241-11.292,15.683-29.154,8.46-20.174,20.106-36.392c14.96-14.86,17.613-16.267,24.328-19.5-8.607-.084-14.476,0-14.476,0s-22.112,5.858-34.583,17.694c-6.82,7-13.8,23.992-15.28,28.55,0.054-2.978,1.231-2.237-9.45-19.5-1-1.512-1.012-1.72-1-3.016s0-6.635,0-6.635,0.361-2.028,2.01-2.01,3.217,0,3.217,0,2.235-.319,2.815-1.81-1.561-.327-3.418-2.01-2.3-2.672-5.831-3.418a15.934,15.934,0,0,0-8.444.6,6.205,6.205,0,0,0-3.82,4.624c-0.469,1.972-.2,11.662-0.2,11.662a4.97,4.97,0,0,1-1,2.412,90.766,90.766,0,0,0-6.635,12.064c-1.568,2.942-1.307,4.079-1.206,6.233a184.513,184.513,0,0,0-7.64-17.492c-3.818-7.249-6.08-9.173-21.112-19.7-10.1-5.075-10.237-5.381-17.291-6.434-7.579-.132-16.085,0-16.085,0a130.23,130.23,0,0,1,21.715,18.1c1.729,3.335,5.637,6.862,15.884,25.334,8.321,18.734,7.627,19.218,13.873,29.958C351.521,255.4,352.2,258.955,363.747,264.44Z"/>
  <path id="Фигура_3" data-name="Фигура 3" class="cls-2" d="M415.017,222.62s7.373-3.581,15.482-18.3,13.294-21.955,23.725-25.535c0.266,11.984-7.39,22.906-10.656,27.344C442.419,206.548,433.335,226.537,415.017,222.62Z"/>
  <path id="Фигура_3-2" data-name="Фигура 3" class="cls-2" d="M333.588,222.821s-7.373-3.581-15.482-18.3-13.294-21.955-23.725-25.535c-0.266,11.984,7.39,22.906,10.657,27.344C306.186,206.749,315.27,226.738,333.588,222.821Z"/>
  <path id="Фигура_4" data-name="Фигура 4" class="cls-2" d="M411.4,234.281s12.011,1.946,25.736-12.465,13.167-19.767,19.9-19.1c-2.9,6.384-6.406,15.509-12.064,23.122S427.069,242.116,411.4,234.281Z"/>
  <path id="Фигура_4-2" data-name="Фигура 4" class="cls-2" d="M336.805,234.281s-12.01,1.946-25.736-12.465-13.166-19.767-19.9-19.1c2.9,6.384,6.406,15.509,12.063,23.122S321.134,242.116,336.805,234.281Z"/>
  <path id="Фигура_5" data-name="Фигура 5" class="cls-2" d="M405.769,239.509a19.392,19.392,0,0,0,15.079,4.423c6.717-.636,10.733-0.118,18.1-7.841-3.755,7.523-6.894,14.419-20.307,15.683l-0.324-.112C411.642,250.815,407.652,249.343,405.769,239.509Z"/>
  <path id="Фигура_5-2" data-name="Фигура 5" class="cls-2" d="M340.022,239.509a19.4,19.4,0,0,1-15.08,4.423c-6.716-.636-10.732-0.118-18.1-7.841,3.755,7.523,6.894,14.419,20.307,15.683l0.324-.112C334.148,250.815,338.139,249.343,340.022,239.509Z"/>
  <path id="ОРЛАН_ПРОГРЕССИВ" data-name="ОРЛАН ПРОГРЕССИВ" class="cls-3" d="M706.171,194.98q-15.87-20.874-47.363-20.874a66.424,66.424,0,0,0-25.452,4.883A55.063,55.063,0,0,0,612.6,194q-8.852,10.134-13.916,25.879t-5.066,37.476q0,39.916,15.869,60.852t47.364,20.935a66.415,66.415,0,0,0,25.451-4.883,55.03,55.03,0,0,0,20.752-15.014q8.85-10.131,13.916-25.879t5.066-37.476Q722.04,215.856,706.171,194.98Zm-17.7,85.754a54.778,54.778,0,0,1-5.737,17.151,27.426,27.426,0,0,1-10.071,10.559,28.908,28.908,0,0,1-14.832,3.6q-17.211,0-24.841-13.916t-7.629-42.236a133.249,133.249,0,0,1,1.831-23.376,53.677,53.677,0,0,1,5.8-17.151,27.993,27.993,0,0,1,10.071-10.559,28.582,28.582,0,0,1,14.77-3.6q17.332,0,24.9,13.916t7.568,42.236A133.241,133.241,0,0,1,688.471,280.734Zm161.072-74.829a41.888,41.888,0,0,0-12.329-15.93,56.242,56.242,0,0,0-20.02-9.827,101.293,101.293,0,0,0-27.4-3.357H743.036V336.337H773.31V285.068h15.259q16.113,0,28.32-4.273a56.575,56.575,0,0,0,20.386-11.962,49.7,49.7,0,0,0,12.329-18.25,62.388,62.388,0,0,0,4.15-23.01A52.805,52.805,0,0,0,849.543,205.905Zm-29.419,36.316a26.66,26.66,0,0,1-6.226,9.644,27.106,27.106,0,0,1-10.071,6.164,40.91,40.91,0,0,1-13.794,2.137H773.31V201.694h15.747a49.63,49.63,0,0,1,14.77,1.953,27.622,27.622,0,0,1,10.315,5.615,22.782,22.782,0,0,1,6.1,8.85,31.642,31.642,0,0,1,2.014,11.536A35.148,35.148,0,0,1,820.124,242.221Zm44.861,93.14a66.612,66.612,0,0,0,17.761,2.258,28.288,28.288,0,0,0,14.831-4.455q6.713-4.272,11.963-13.367t9.094-24.6a291.7,291.7,0,0,0,6.287-38.086q2.44-22.582,3.54-53.833h29.3V336.337h30.273V176.791H901q-0.732,23.685-1.831,42.054t-2.624,32.226q-1.529,13.857-3.3,23.621a118.48,118.48,0,0,1-3.967,16.3,45.04,45.04,0,0,1-4.7,10.315,19.583,19.583,0,0,1-5.371,5.676,13.715,13.715,0,0,1-6.043,2.259,36.5,36.5,0,0,1-6.714.122Zm273.435,0.976-47.24-159.546h-41.99l-47.24,159.546h29.78l9.04-31.494h55.66l8.79,31.494h33.2Zm-48.7-56.03h-41.75l20.99-74.219Zm175.04,56.03V176.791h-30.02v64.087h-54.2V176.791h-30.03V336.337h30.03V266.879h54.2v69.458h30.02Zm274.66,0V176.791H1425.65V336.337h30.28V203.281h53.22V336.337h30.27Zm134.83-130.432a41.92,41.92,0,0,0-12.33-15.93,56.175,56.175,0,0,0-20.02-9.827,101.25,101.25,0,0,0-27.4-3.357h-46.76V336.337h30.28V285.068h15.26q16.11,0,28.32-4.273a56.582,56.582,0,0,0,20.38-11.962,49.741,49.741,0,0,0,12.33-18.25,62.286,62.286,0,0,0,4.15-23.01A52.757,52.757,0,0,0,1674.25,205.905Zm-29.42,36.316a26.659,26.659,0,0,1-6.22,9.644,27.143,27.143,0,0,1-10.08,6.164,40.841,40.841,0,0,1-13.79,2.137h-16.72V201.694h15.74a49.607,49.607,0,0,1,14.77,1.953,27.676,27.676,0,0,1,10.32,5.615,22.7,22.7,0,0,1,6.1,8.85,31.5,31.5,0,0,1,2.02,11.536A35.213,35.213,0,0,1,1644.83,242.221Zm160.95-47.241q-15.87-20.874-47.36-20.874a66.37,66.37,0,0,0-25.45,4.883A55.042,55.042,0,0,0,1712.21,194q-8.85,10.134-13.91,25.879t-5.07,37.476q0,39.916,15.87,60.852t47.36,20.935a66.457,66.457,0,0,0,25.46-4.883,55.055,55.055,0,0,0,20.75-15.014q8.85-10.131,13.91-25.879t5.07-37.476Q1821.65,215.856,1805.78,194.98Zm-17.7,85.754a54.573,54.573,0,0,1-5.74,17.151,27.366,27.366,0,0,1-10.07,10.559,28.893,28.893,0,0,1-14.83,3.6q-17.2,0-24.84-13.916t-7.63-42.236a133.352,133.352,0,0,1,1.83-23.376,53.579,53.579,0,0,1,5.8-17.151,27.968,27.968,0,0,1,10.07-10.559,28.585,28.585,0,0,1,14.77-3.6q17.34,0,24.9,13.916,7.575,13.915,7.57,42.236A133.344,133.344,0,0,1,1788.08,280.734Zm160.03-103.943h-97.9V336.337h29.91v-133.3h67.99V176.791Zm138.49,29.114a41.724,41.724,0,0,0-12.33-15.93,56.175,56.175,0,0,0-20.02-9.827,101.25,101.25,0,0,0-27.4-3.357H1980.1V336.337h30.27V285.068h15.26q16.11,0,28.32-4.273a56.627,56.627,0,0,0,20.39-11.962,49.594,49.594,0,0,0,12.32-18.25,62.286,62.286,0,0,0,4.15-23.01A52.757,52.757,0,0,0,2086.6,205.905Zm-29.42,36.316a26.659,26.659,0,0,1-6.22,9.644,27.182,27.182,0,0,1-10.07,6.164,40.942,40.942,0,0,1-13.8,2.137h-16.72V201.694h15.75a49.653,49.653,0,0,1,14.77,1.953,27.552,27.552,0,0,1,10.31,5.615,22.828,22.828,0,0,1,6.11,8.85,31.705,31.705,0,0,1,2.01,11.536A34.995,34.995,0,0,1,2057.18,242.221Zm162.42,94.116v-25.39h-65.55V266.635h62.5v-24.78h-62.5V202.182h65.55V176.791h-96.07V336.337h96.07Zm141.48-34.3q-4.035,1.83-8.73,3.6a99.545,99.545,0,0,1-9.52,3.051q-4.83,1.283-9.52,2.076a52.579,52.579,0,0,1-8.73.793q-11.235,0-19.41-3.723a33.932,33.932,0,0,1-13.43-10.8,47.789,47.789,0,0,1-7.75-17.273,97.242,97.242,0,0,1-2.5-23.133,96.033,96.033,0,0,1,2.44-22.4,50.9,50.9,0,0,1,7.63-17.579,35.71,35.71,0,0,1,13.24-11.474q8.07-4.089,19.41-4.09a79.869,79.869,0,0,1,17.09,2.076,94.759,94.759,0,0,1,19.78,6.958V180.332q-5.13-1.708-9.89-2.808c-3.17-.733-6.31-1.322-9.4-1.77s-6.24-.752-9.46-0.916-6.65-.244-10.31-0.244a78.727,78.727,0,0,0-30.58,5.676,62.3,62.3,0,0,0-23.13,16.48,74.328,74.328,0,0,0-14.65,26.489q-5.13,15.687-5.13,35.828,0,19.654,4.7,34.485a65.963,65.963,0,0,0,13.79,24.841,57.4,57.4,0,0,0,22.34,15.076q13.245,5.064,30.46,5.066a101.108,101.108,0,0,0,20.69-2.076,121.844,121.844,0,0,0,20.57-6.347V302.036Zm137.45,0q-4.035,1.83-8.73,3.6a99.545,99.545,0,0,1-9.52,3.051q-4.83,1.283-9.52,2.076a52.486,52.486,0,0,1-8.73.793q-11.235,0-19.41-3.723a33.932,33.932,0,0,1-13.43-10.8,47.789,47.789,0,0,1-7.75-17.273,97.242,97.242,0,0,1-2.5-23.133,96.033,96.033,0,0,1,2.44-22.4,50.9,50.9,0,0,1,7.63-17.579,35.663,35.663,0,0,1,13.25-11.474q8.055-4.089,19.4-4.09a79.869,79.869,0,0,1,17.09,2.076,94.759,94.759,0,0,1,19.78,6.958V180.332q-5.13-1.708-9.89-2.808c-3.17-.733-6.31-1.322-9.4-1.77s-6.24-.752-9.46-0.916-6.65-.244-10.31-0.244a78.727,78.727,0,0,0-30.58,5.676,62.3,62.3,0,0,0-23.13,16.48,74.481,74.481,0,0,0-14.65,26.489q-5.13,15.687-5.13,35.828,0,19.654,4.7,34.485a65.963,65.963,0,0,0,13.79,24.841,57.4,57.4,0,0,0,22.34,15.076q13.245,5.064,30.46,5.066a101.108,101.108,0,0,0,20.69-2.076,121.844,121.844,0,0,0,20.57-6.347V302.036Zm140.99,34.3V176.791h-28.93l-55.3,102.051h-0.24V176.791h-30.27V336.337h29.05L2609,234.287h0.25v102.05h30.27Zm75.81,0q30.87,0,47.24-12.268,16.35-12.267,16.36-36.682a38.856,38.856,0,0,0-2.38-13.916,34.737,34.737,0,0,0-6.47-10.8,34,34,0,0,0-9.53-7.446,37.128,37.128,0,0,0-11.41-3.846,32.8,32.8,0,0,0,10.38-5.737,34.238,34.238,0,0,0,7.32-8.423,36.41,36.41,0,0,0,4.33-10.437,48.166,48.166,0,0,0,1.41-11.657q0-19.287-13.61-28.809t-40.84-9.522h-51.51V336.337h48.71Zm24.59-107.3a18.069,18.069,0,0,1-4.63,7.141,22.483,22.483,0,0,1-8.31,4.883,37.772,37.772,0,0,1-12.39,1.77h-18.18V200.6h18.18a46.49,46.49,0,0,1,12.27,1.4,23.131,23.131,0,0,1,8.3,3.967,14.837,14.837,0,0,1,4.7,6.226,21.784,21.784,0,0,1,1.47,8.179A26.053,26.053,0,0,1,2739.92,229.038ZM2696.41,311.8v-46.02h18.67q15.99,0,23.75,5.859,7.74,5.859,7.75,16.235a23.371,23.371,0,0,1-1.9,9.4,21.3,21.3,0,0,1-5.55,7.629,26.149,26.149,0,0,1-9.09,5.066,39.641,39.641,0,0,1-12.64,1.831h-20.99Z"/>
</svg>
